<svg style="vertical-align: -3.733ex;" xmlns="http://www.w3.org/2000/svg" width="41.35ex" height="8.597ex" role="img"
     focusable="false" viewBox="0 -2150 18276.9 3800">
    <g
            stroke=" currentColor" fill="currentColor" stroke-width="0" transform="scale(1,-1)">
        <g data-mml-node="
                                                                                               math">
            <g
                    data-mml-node=" mo">
                <path
                        data-c="3D"
                        d="M56 347Q56 360 70 367H707Q722 359 722 347Q722 336 708 328L390 327H72Q56 332 56 347ZM56 153Q56 168 72 173H708Q722 163 722 153Q722 140 707 133H70Q56 140 56 153Z"></path>
            </g>
            <g
                    data-mml-node=" mrow" transform="translate(1055.8,0)">
                <g data-mml-node=" mo">
                    <path
                            data-c="5B" d="M118 -250V750H255V710H158V-210H255V-250H118Z"></path>
                </g>
                <g data-mml-node="
                                                                               mtable" transform="translate(278,0)">
                    <g
                            data-mml-node=" mtr">
                        <g data-mml-node=" mtd">
                            <g data-mml-node=" msub">
                                <g data-mml-node=" mi">
                                    <path
                                            data-c="1D462"
                                            d="M21 287Q21 295 30 318T55 370T99 420T158 442Q204 442 227 417T250 358Q250 340 216 246T182 105Q182 62 196 45T238 27T291 44T328 78L339 95Q341 99 377 247Q407 367 413 387T427 416Q444 431 463 431Q480 431 488 421T496 402L420 84Q419 79 419 68Q419 43 426 35T447 26Q469 29 482 57T512 145Q514 153 532 153Q551 153 551 144Q550 139 549 130T540 98T523 55T498 17T462 -8Q454 -10 438 -10Q372 -10 347 46Q345 45 336 36T318 21T296 6T267 -6T233 -11Q189 -11 155 7Q103 38 103 113Q103 170 138 262T173 379Q173 380 173 381Q173 390 173 393T169 400T158 404H154Q131 404 112 385T82 344T65 302T57 280Q55 278 41 278H27Q21 284 21 287Z"></path>
                                </g>
                                <g
                                        data-mml-node=" mn" transform="translate(605,-150) scale(0.707)">
                                    <path
                                            data-c="31"
                                            d="M213 578L200 573Q186 568 160 563T102 556H83V602H102Q149 604 189 617T245 641T273 663Q275 666 285 666Q294 666 302 660V361L303 61Q310 54 315 52T339 48T401 46H427V0H416Q395 3 257 3Q121 3 100 0H88V46H114Q136 46 152 46T177 47T193 50T201 52T207 57T213 61V578Z"></path>
                                </g>
                            </g>
                            <g
                                    data-mml-node=" mo" transform="translate(1008.6,0)">
                                <path
                                        data-c="2C"
                                        d="M78 35T78 60T94 103T137 121Q165 121 187 96T210 8Q210 -27 201 -60T180 -117T154 -158T130 -185T117 -194Q113 -194 104 -185T95 -172Q95 -168 106 -156T131 -126T157 -76T173 -3V9L172 8Q170 7 167 6T161 3T152 1T140 0Q113 0 96 17Z"></path>
                            </g>
                            <g
                                    data-mml-node=" msub" transform="translate(1453.2,0)">
                                <g data-mml-node=" mi">
                                    <path
                                            data-c="1D462"
                                            d="M21 287Q21 295 30 318T55 370T99 420T158 442Q204 442 227 417T250 358Q250 340 216 246T182 105Q182 62 196 45T238 27T291 44T328 78L339 95Q341 99 377 247Q407 367 413 387T427 416Q444 431 463 431Q480 431 488 421T496 402L420 84Q419 79 419 68Q419 43 426 35T447 26Q469 29 482 57T512 145Q514 153 532 153Q551 153 551 144Q550 139 549 130T540 98T523 55T498 17T462 -8Q454 -10 438 -10Q372 -10 347 46Q345 45 336 36T318 21T296 6T267 -6T233 -11Q189 -11 155 7Q103 38 103 113Q103 170 138 262T173 379Q173 380 173 381Q173 390 173 393T169 400T158 404H154Q131 404 112 385T82 344T65 302T57 280Q55 278 41 278H27Q21 284 21 287Z"></path>
                                </g>
                                <g
                                        data-mml-node=" mn" transform="translate(605,-150) scale(0.707)">
                                    <path
                                            data-c="32"
                                            d="M109 429Q82 429 66 447T50 491Q50 562 103 614T235 666Q326 666 387 610T449 465Q449 422 429 383T381 315T301 241Q265 210 201 149L142 93L218 92Q375 92 385 97Q392 99 409 186V189H449V186Q448 183 436 95T421 3V0H50V19V31Q50 38 56 46T86 81Q115 113 136 137Q145 147 170 174T204 211T233 244T261 278T284 308T305 340T320 369T333 401T340 431T343 464Q343 527 309 573T212 619Q179 619 154 602T119 569T109 550Q109 549 114 549Q132 549 151 535T170 489Q170 464 154 447T109 429Z"></path>
                                </g>
                            </g>
                            <g
                                    data-mml-node=" mo" transform="translate(2461.8,0)">
                                <path
                                        data-c="2C"
                                        d="M78 35T78 60T94 103T137 121Q165 121 187 96T210 8Q210 -27 201 -60T180 -117T154 -158T130 -185T117 -194Q113 -194 104 -185T95 -172Q95 -168 106 -156T131 -126T157 -76T173 -3V9L172 8Q170 7 167 6T161 3T152 1T140 0Q113 0 96 17Z"></path>
                            </g>
                            <g
                                    data-mml-node=" msub" transform="translate(2906.4,0)">
                                <g data-mml-node=" mi">
                                    <path
                                            data-c="1D462"
                                            d="M21 287Q21 295 30 318T55 370T99 420T158 442Q204 442 227 417T250 358Q250 340 216 246T182 105Q182 62 196 45T238 27T291 44T328 78L339 95Q341 99 377 247Q407 367 413 387T427 416Q444 431 463 431Q480 431 488 421T496 402L420 84Q419 79 419 68Q419 43 426 35T447 26Q469 29 482 57T512 145Q514 153 532 153Q551 153 551 144Q550 139 549 130T540 98T523 55T498 17T462 -8Q454 -10 438 -10Q372 -10 347 46Q345 45 336 36T318 21T296 6T267 -6T233 -11Q189 -11 155 7Q103 38 103 113Q103 170 138 262T173 379Q173 380 173 381Q173 390 173 393T169 400T158 404H154Q131 404 112 385T82 344T65 302T57 280Q55 278 41 278H27Q21 284 21 287Z"></path>
                                </g>
                                <g
                                        data-mml-node=" mn" transform="translate(605,-150) scale(0.707)">
                                    <path
                                            data-c="33"
                                            d="M127 463Q100 463 85 480T69 524Q69 579 117 622T233 665Q268 665 277 664Q351 652 390 611T430 522Q430 470 396 421T302 350L299 348Q299 347 308 345T337 336T375 315Q457 262 457 175Q457 96 395 37T238 -22Q158 -22 100 21T42 130Q42 158 60 175T105 193Q133 193 151 175T169 130Q169 119 166 110T159 94T148 82T136 74T126 70T118 67L114 66Q165 21 238 21Q293 21 321 74Q338 107 338 175V195Q338 290 274 322Q259 328 213 329L171 330L168 332Q166 335 166 348Q166 366 174 366Q202 366 232 371Q266 376 294 413T322 525V533Q322 590 287 612Q265 626 240 626Q208 626 181 615T143 592T132 580H135Q138 579 143 578T153 573T165 566T175 555T183 540T186 520Q186 498 172 481T127 463Z"></path>
                                </g>
                            </g>
                        </g>
                    </g>
                </g>
                <g
                        data-mml-node=" mo" transform="translate(4193,0)">
                    <path
                            data-c="5D" d="M22 710V750H159V-250H22V-210H119V710H22Z"></path>
                </g>
            </g>
            <g data-mml-node="
                                                                               mrow" transform="translate(5693.4,0)">
                <g
                        data-mml-node=" mo">
                    <path
                            data-c="23A1" d="M319 -645V1154H666V1070H403V-645H319Z" transform="translate(0,996)"></path>
                    <path
                            data-c="23A3" d="M319 -644V1155H403V-560H666V-644H319Z"
                            transform="translate(0,-1006)"></path>
                    <svg
                            width="667" height="402" y="49" x="0" viewBox="0 100.5 667 402">
                        <path
                                data-c="23A2" d="M319 0V602H403V0H319Z" transform="scale(1,1.002)"></path>
                    </svg>
                </g>
                <g data-mml-node="
                                                                                             mtable"
                   transform="translate(667,0)">
                    <g
                            data-mml-node=" mtr" transform="translate(0,1400)">
                        <g data-mml-node=" mtd">
                            <g data-mml-node=" msub">
                                <g
                                        data-mml-node=" mi">
                                    <path
                                            data-c="1D706"
                                            d="M166 673Q166 685 183 694H202Q292 691 316 644Q322 629 373 486T474 207T524 67Q531 47 537 34T546 15T551 6T555 2T556 -2T550 -11H482Q457 3 450 18T399 152L354 277L340 262Q327 246 293 207T236 141Q211 112 174 69Q123 9 111 -1T83 -12Q47 -12 47 20Q47 37 61 52T199 187Q229 216 266 252T321 306L338 322Q338 323 288 462T234 612Q214 657 183 657Q166 657 166 673Z"></path>
                                </g>
                                <g
                                        data-mml-node=" mn" transform="translate(616,-150) scale(0.707)">
                                    <path
                                            data-c="31"
                                            d="M213 578L200 573Q186 568 160 563T102 556H83V602H102Q149 604 189 617T245 641T273 663Q275 666 285 666Q294 666 302 660V361L303 61Q310 54 315 52T339 48T401 46H427V0H416Q395 3 257 3Q121 3 100 0H88V46H114Q136 46 152 46T177 47T193 50T201 52T207 57T213 61V578Z"></path>
                                </g>
                            </g>
                        </g>
                        <g
                                data-mml-node=" mtd" transform="translate(2019.6,0)">
                            <g data-mml-node=" mo">
                                <path
                                        data-c="2217"
                                        d="M229 286Q216 420 216 436Q216 454 240 464Q241 464 245 464T251 465Q263 464 273 456T283 436Q283 419 277 356T270 286L328 328Q384 369 389 372T399 375Q412 375 423 365T435 338Q435 325 425 315Q420 312 357 282T289 250L355 219L425 184Q434 175 434 161Q434 146 425 136T401 125Q393 125 383 131T328 171L270 213Q283 79 283 63Q283 53 276 44T250 35Q231 35 224 44T216 63Q216 80 222 143T229 213L171 171Q115 130 110 127Q106 124 100 124Q87 124 76 134T64 161Q64 166 64 169T67 175T72 181T81 188T94 195T113 204T138 215T170 230T210 250L74 315Q65 324 65 338Q65 353 74 363T98 374Q106 374 116 368T171 328L229 286Z"></path>
                            </g>
                        </g>
                        <g
                                data-mml-node=" mtd" transform="translate(3519.6,0)">
                            <g data-mml-node=" mo">
                                <path
                                        data-c="2217"
                                        d="M229 286Q216 420 216 436Q216 454 240 464Q241 464 245 464T251 465Q263 464 273 456T283 436Q283 419 277 356T270 286L328 328Q384 369 389 372T399 375Q412 375 423 365T435 338Q435 325 425 315Q420 312 357 282T289 250L355 219L425 184Q434 175 434 161Q434 146 425 136T401 125Q393 125 383 131T328 171L270 213Q283 79 283 63Q283 53 276 44T250 35Q231 35 224 44T216 63Q216 80 222 143T229 213L171 171Q115 130 110 127Q106 124 100 124Q87 124 76 134T64 161Q64 166 64 169T67 175T72 181T81 188T94 195T113 204T138 215T170 230T210 250L74 315Q65 324 65 338Q65 353 74 363T98 374Q106 374 116 368T171 328L229 286Z"></path>
                            </g>
                        </g>
                    </g>
                    <g
                            data-mml-node=" mtr">
                        <g data-mml-node=" mtd" transform="translate(259.8,0)">
                            <g data-mml-node=" mn">
                                <path
                                        data-c="30"
                                        d="M96 585Q152 666 249 666Q297 666 345 640T423 548Q460 465 460 320Q460 165 417 83Q397 41 362 16T301 -15T250 -22Q224 -22 198 -16T137 16T82 83Q39 165 39 320Q39 494 96 585ZM321 597Q291 629 250 629Q208 629 178 597Q153 571 145 525T137 333Q137 175 145 125T181 46Q209 16 250 16Q290 16 318 46Q347 76 354 130T362 333Q362 478 354 524T321 597Z"></path>
                            </g>
                        </g>
                        <g
                                data-mml-node=" mtd" transform="translate(2019.6,0)">
                            <g data-mml-node=" mo">
                                <path
                                        data-c="2217"
                                        d="M229 286Q216 420 216 436Q216 454 240 464Q241 464 245 464T251 465Q263 464 273 456T283 436Q283 419 277 356T270 286L328 328Q384 369 389 372T399 375Q412 375 423 365T435 338Q435 325 425 315Q420 312 357 282T289 250L355 219L425 184Q434 175 434 161Q434 146 425 136T401 125Q393 125 383 131T328 171L270 213Q283 79 283 63Q283 53 276 44T250 35Q231 35 224 44T216 63Q216 80 222 143T229 213L171 171Q115 130 110 127Q106 124 100 124Q87 124 76 134T64 161Q64 166 64 169T67 175T72 181T81 188T94 195T113 204T138 215T170 230T210 250L74 315Q65 324 65 338Q65 353 74 363T98 374Q106 374 116 368T171 328L229 286Z"></path>
                            </g>
                        </g>
                        <g
                                data-mml-node=" mtd" transform="translate(3519.6,0)">
                            <g data-mml-node=" mo">
                                <path
                                        data-c="2217"
                                        d="M229 286Q216 420 216 436Q216 454 240 464Q241 464 245 464T251 465Q263 464 273 456T283 436Q283 419 277 356T270 286L328 328Q384 369 389 372T399 375Q412 375 423 365T435 338Q435 325 425 315Q420 312 357 282T289 250L355 219L425 184Q434 175 434 161Q434 146 425 136T401 125Q393 125 383 131T328 171L270 213Q283 79 283 63Q283 53 276 44T250 35Q231 35 224 44T216 63Q216 80 222 143T229 213L171 171Q115 130 110 127Q106 124 100 124Q87 124 76 134T64 161Q64 166 64 169T67 175T72 181T81 188T94 195T113 204T138 215T170 230T210 250L74 315Q65 324 65 338Q65 353 74 363T98 374Q106 374 116 368T171 328L229 286Z"></path>
                            </g>
                        </g>
                    </g>
                    <g
                            data-mml-node=" mtr" transform="translate(0,-1400)">
                        <g data-mml-node=" mtd" transform="translate(259.8,0)">
                            <g
                                    data-mml-node=" mn">
                                <path
                                        data-c="30"
                                        d="M96 585Q152 666 249 666Q297 666 345 640T423 548Q460 465 460 320Q460 165 417 83Q397 41 362 16T301 -15T250 -22Q224 -22 198 -16T137 16T82 83Q39 165 39 320Q39 494 96 585ZM321 597Q291 629 250 629Q208 629 178 597Q153 571 145 525T137 333Q137 175 145 125T181 46Q209 16 250 16Q290 16 318 46Q347 76 354 130T362 333Q362 478 354 524T321 597Z"></path>
                            </g>
                        </g>
                        <g
                                data-mml-node=" mtd" transform="translate(2019.6,0)">
                            <g data-mml-node=" mo">
                                <path
                                        data-c="2217"
                                        d="M229 286Q216 420 216 436Q216 454 240 464Q241 464 245 464T251 465Q263 464 273 456T283 436Q283 419 277 356T270 286L328 328Q384 369 389 372T399 375Q412 375 423 365T435 338Q435 325 425 315Q420 312 357 282T289 250L355 219L425 184Q434 175 434 161Q434 146 425 136T401 125Q393 125 383 131T328 171L270 213Q283 79 283 63Q283 53 276 44T250 35Q231 35 224 44T216 63Q216 80 222 143T229 213L171 171Q115 130 110 127Q106 124 100 124Q87 124 76 134T64 161Q64 166 64 169T67 175T72 181T81 188T94 195T113 204T138 215T170 230T210 250L74 315Q65 324 65 338Q65 353 74 363T98 374Q106 374 116 368T171 328L229 286Z"></path>
                            </g>
                        </g>
                        <g
                                data-mml-node=" mtd" transform="translate(3519.6,0)">
                            <g data-mml-node=" mo">
                                <path
                                        data-c="2217"
                                        d="M229 286Q216 420 216 436Q216 454 240 464Q241 464 245 464T251 465Q263 464 273 456T283 436Q283 419 277 356T270 286L328 328Q384 369 389 372T399 375Q412 375 423 365T435 338Q435 325 425 315Q420 312 357 282T289 250L355 219L425 184Q434 175 434 161Q434 146 425 136T401 125Q393 125 383 131T328 171L270 213Q283 79 283 63Q283 53 276 44T250 35Q231 35 224 44T216 63Q216 80 222 143T229 213L171 171Q115 130 110 127Q106 124 100 124Q87 124 76 134T64 161Q64 166 64 169T67 175T72 181T81 188T94 195T113 204T138 215T170 230T210 250L74 315Q65 324 65 338Q65 353 74 363T98 374Q106 374 116 368T171 328L229 286Z"></path>
                            </g>
                        </g>
                    </g>
                </g>
                <g
                        data-mml-node=" mo" transform="translate(4686.6,0)">
                    <path
                            data-c="23A4" d="M0 1070V1154H347V-645H263V1070H0Z" transform="translate(0,996)"></path>
                    <path
                            data-c="23A6" d="M263 -560V1155H347V-644H0V-560H263Z" transform="translate(0,-1006)"></path>
                    <svg
                            width="667" height="402" y="49" x="0" viewBox="0 100.5 667 402">
                        <path
                                data-c="23A5" d="M263 0V602H347V0H263Z" transform="scale(1,1.002)"></path>
                    </svg>
                </g>
            </g>
            <g data-mml-node="
                                                                                                 mo"
               transform="translate(11324.8,0)">
                <path
                        data-c="3D"
                        d="M56 347Q56 360 70 367H707Q722 359 722 347Q722 336 708 328L390 327H72Q56 332 56 347ZM56 153Q56 168 72 173H708Q722 163 722 153Q722 140 707 133H70Q56 140 56 153Z"></path>
            </g>
            <g
                    data-mml-node=" msub" transform="translate(12380.5,0)">
                <g data-mml-node=" mi">
                    <path
                            data-c="1D448"
                            d="M107 637Q73 637 71 641Q70 643 70 649Q70 673 81 682Q83 683 98 683Q139 681 234 681Q268 681 297 681T342 682T362 682Q378 682 378 672Q378 670 376 658Q371 641 366 638H364Q362 638 359 638T352 638T343 637T334 637Q295 636 284 634T266 623Q265 621 238 518T184 302T154 169Q152 155 152 140Q152 86 183 55T269 24Q336 24 403 69T501 205L552 406Q599 598 599 606Q599 633 535 637Q511 637 511 648Q511 650 513 660Q517 676 519 679T529 683Q532 683 561 682T645 680Q696 680 723 681T752 682Q767 682 767 672Q767 650 759 642Q756 637 737 637Q666 633 648 597Q646 592 598 404Q557 235 548 205Q515 105 433 42T263 -22Q171 -22 116 34T60 167V183Q60 201 115 421Q164 622 164 628Q164 635 107 637Z"></path>
                </g>
                <g
                        data-mml-node=" mn" transform="translate(716,-150) scale(0.707)">
                    <path
                            data-c="31"
                            d="M213 578L200 573Q186 568 160 563T102 556H83V602H102Q149 604 189 617T245 641T273 663Q275 666 285 666Q294 666 302 660V361L303 61Q310 54 315 52T339 48T401 46H427V0H416Q395 3 257 3Q121 3 100 0H88V46H114Q136 46 152 46T177 47T193 50T201 52T207 57T213 61V578Z"></path>
                </g>
            </g>
            <g
                    data-mml-node=" mrow" transform="translate(13666.8,0)">
                <g data-mml-node="
                                                              mo" transform="translate(0 -0.5)">
                    <path
                            data-c="5B" d="M247 -949V1450H516V1388H309V-887H516V-949H247Z"></path>
                </g>
                <g data-mml-node="
                                                                                 mtable" transform="translate(528,0)">
                    <g
                            data-mml-node=" mtr" transform="translate(0,735)">
                        <g data-mml-node=" mtd">
                            <g data-mml-node=" msub">
                                <g
                                        data-mml-node=" mi">
                                    <path
                                            data-c="1D706"
                                            d="M166 673Q166 685 183 694H202Q292 691 316 644Q322 629 373 486T474 207T524 67Q531 47 537 34T546 15T551 6T555 2T556 -2T550 -11H482Q457 3 450 18T399 152L354 277L340 262Q327 246 293 207T236 141Q211 112 174 69Q123 9 111 -1T83 -12Q47 -12 47 20Q47 37 61 52T199 187Q229 216 266 252T321 306L338 322Q338 323 288 462T234 612Q214 657 183 657Q166 657 166 673Z"></path>
                                </g>
                                <g
                                        data-mml-node=" mn" transform="translate(616,-150) scale(0.707)">
                                    <path
                                            data-c="31"
                                            d="M213 578L200 573Q186 568 160 563T102 556H83V602H102Q149 604 189 617T245 641T273 663Q275 666 285 666Q294 666 302 660V361L303 61Q310 54 315 52T339 48T401 46H427V0H416Q395 3 257 3Q121 3 100 0H88V46H114Q136 46 152 46T177 47T193 50T201 52T207 57T213 61V578Z"></path>
                                </g>
                            </g>
                        </g>
                        <g
                                data-mml-node=" mtd" transform="translate(2250.1,0)">
                            <g data-mml-node=" msub">
                                <g data-mml-node=" mi">
                                    <path
                                            data-c="1D44F"
                                            d="M73 647Q73 657 77 670T89 683Q90 683 161 688T234 694Q246 694 246 685T212 542Q204 508 195 472T180 418L176 399Q176 396 182 402Q231 442 283 442Q345 442 383 396T422 280Q422 169 343 79T173 -11Q123 -11 82 27T40 150V159Q40 180 48 217T97 414Q147 611 147 623T109 637Q104 637 101 637H96Q86 637 83 637T76 640T73 647ZM336 325V331Q336 405 275 405Q258 405 240 397T207 376T181 352T163 330L157 322L136 236Q114 150 114 114Q114 66 138 42Q154 26 178 26Q211 26 245 58Q270 81 285 114T318 219Q336 291 336 325Z"></path>
                                </g>
                                <g
                                        data-mml-node=" mn" transform="translate(462,-150) scale(0.707)">
                                    <path
                                            data-c="31"
                                            d="M213 578L200 573Q186 568 160 563T102 556H83V602H102Q149 604 189 617T245 641T273 663Q275 666 285 666Q294 666 302 660V361L303 61Q310 54 315 52T339 48T401 46H427V0H416Q395 3 257 3Q121 3 100 0H88V46H114Q136 46 152 46T177 47T193 50T201 52T207 57T213 61V578Z"></path>
                                </g>
                            </g>
                        </g>
                    </g>
                    <g
                            data-mml-node=" mtr" transform="translate(0,-735)">
                        <g data-mml-node=" mtd" transform="translate(259.8,0)">
                            <g
                                    data-mml-node=" mn">
                                <path
                                        data-c="30"
                                        d="M96 585Q152 666 249 666Q297 666 345 640T423 548Q460 465 460 320Q460 165 417 83Q397 41 362 16T301 -15T250 -22Q224 -22 198 -16T137 16T82 83Q39 165 39 320Q39 494 96 585ZM321 597Q291 629 250 629Q208 629 178 597Q153 571 145 525T137 333Q137 175 145 125T181 46Q209 16 250 16Q290 16 318 46Q347 76 354 130T362 333Q362 478 354 524T321 597Z"></path>
                            </g>
                        </g>
                        <g
                                data-mml-node=" mtd" transform="translate(2089.6,0)">
                            <g data-mml-node=" msub">
                                <g data-mml-node=" mi">
                                    <path
                                            data-c="1D434"
                                            d="M208 74Q208 50 254 46Q272 46 272 35Q272 34 270 22Q267 8 264 4T251 0Q249 0 239 0T205 1T141 2Q70 2 50 0H42Q35 7 35 11Q37 38 48 46H62Q132 49 164 96Q170 102 345 401T523 704Q530 716 547 716H555H572Q578 707 578 706L606 383Q634 60 636 57Q641 46 701 46Q726 46 726 36Q726 34 723 22Q720 7 718 4T704 0Q701 0 690 0T651 1T578 2Q484 2 455 0H443Q437 6 437 9T439 27Q443 40 445 43L449 46H469Q523 49 533 63L521 213H283L249 155Q208 86 208 74ZM516 260Q516 271 504 416T490 562L463 519Q447 492 400 412L310 260L413 259Q516 259 516 260Z"></path>
                                </g>
                                <g
                                        data-mml-node=" mn" transform="translate(783,-150) scale(0.707)">
                                    <path
                                            data-c="31"
                                            d="M213 578L200 573Q186 568 160 563T102 556H83V602H102Q149 604 189 617T245 641T273 663Q275 666 285 666Q294 666 302 660V361L303 61Q310 54 315 52T339 48T401 46H427V0H416Q395 3 257 3Q121 3 100 0H88V46H114Q136 46 152 46T177 47T193 50T201 52T207 57T213 61V578Z"></path>
                                </g>
                            </g>
                        </g>
                    </g>
                    <line data-line=" v" class="mjx-solid" x1="1554.6" y1="-985" x2="1554.6" y2="1485"></line>
                    <line data-line="h" class="mjx-solid" x1="0" y1="250" x2="3276.1" y2="250"></line>
                </g>
                <g
                        data-mml-node=" mo" transform="translate(3804.1,0) translate(0 -0.5)">
                    <path
                            data-c="5D" d="M11 1388V1450H280V-949H11V-887H218V1388H11Z"></path>
                </g>
            </g>
            <g data-mml-node="
                                                                                  mo" transform="translate(17998.9,0)">
                <path
                        data-c="2E"
                        d="M78 60Q78 84 95 102T138 120Q162 120 180 104T199 61Q199 36 182 18T139 0T96 17T78 60Z"></path>
            </g>
        </g>
    </g>
</svg>